Genre:Adventure | Family
Language:English  http://www.imdb.com/title/tt1544572/
Source:DVDRIP RUS./Audio.RX.Thx

General
Complete name :The.Search.For.Santa.Paws.2010.DvDRip.H264.Feel-Free
Format : MPEG-4
Format profile : Base Media / Version 2
Codec ID : mp42
File size : 767 MiB
Duration : 1h 32mn
Overall bit rate : 1 158 Kbps
Video #1
Codec ID : avc1
Codec ID/Info : Advanced Video Coding
Duration : 1h 32mn
Bit rate mode : Variable
Bit rate : 677 Kbps
Width : 720 pixels
Height : 384 pixels
Display aspect ratio : 1.875
Frame rate mode : Constant
Frame rate : 23.976 fps
Resolution : 24 bits
Colorimetry : 4:2:0
Scan type : Progressive
Bits/(Pixel*Frame) : 0.102
Stream size : 448 MiB (58%)
Audio #2
ID : 2
Format : AAC
Format/Info : Advanced Audio Codec
Format version : Version 4
Format profile : LC
Format settings, SBR : No
Codec ID : 40
Duration : 1h 32mn
Bit rate mode : Constant
Bit rate : 477 Kbps
Nominal bit rate : 480 Kbps
Channel(s) : 6 channels
Channel positions : Front: L C R, Rear: L R, LFE
Sampling rate : 48.0 KHz
Resolution : 16 bits
Stream size : 316 MiB (41%)

